<svg width="3229" height="1118" xmlns="http://www.w3.org/2000/svg" xmlns:xlink="http://www.w3.org/1999/xlink" overflow="hidden"><defs><clipPath id="clip0"><rect x="301" y="641" width="3229" height="1118"/></clipPath><linearGradient x1="662" y1="1591.5" x2="3525" y2="1591.5" gradientUnits="userSpaceOnUse" spreadMethod="reflect" id="fill1"><stop offset="0" stop-color="#CA0000"/><stop offset="0.09744" stop-color="#F10A00"/><stop offset="0.28" stop-color="#FF5300"/><stop offset="0.5" stop-color="#FFFF00"/><stop offset="0.61" stop-color="#45FF17"/><stop offset="0.77" stop-color="#00F5FF"/><stop offset="1" stop-color="#0030FF"/></linearGradient></defs><g clip-path="url(#clip0)" transform="translate(-301 -641)"><rect x="343" y="1491" width="283" height="230" fill="#F8CBAD"/><path d="M306 732.898C306 687.115 343.114 650 388.897 650L3442.1 650C3487.89 650 3525 687.115 3525 732.898L3525 801.102C3525 846.885 3487.89 884 3442.1 884L388.897 884C343.114 884 306 846.885 306 801.102Z" fill="#92AFD6" fill-rule="evenodd"/><path d="M306 1251.67C306 1204.36 344.355 1166 391.667 1166L3439.33 1166C3486.65 1166 3525 1204.36 3525 1251.67L3525 1314.33C3525 1361.64 3486.65 1400 3439.33 1400L391.667 1400C344.355 1400 306 1361.64 306 1314.33Z" fill="#F8CBAD" fill-rule="evenodd"/><path d="M306.096 800.055 669.875 800.055 669.875 950.028 306.096 950.028Z" fill="#C8DAE8" fill-rule="evenodd"/><path d="M669.875 800.055 955.367 800.055 955.367 950.028 669.875 950.028Z" fill="#C8DAE8" fill-rule="evenodd"/><path d="M955.367 800.055 1240.86 800.055 1240.86 950.028 955.367 950.028Z" fill="#C8DAE8" fill-rule="evenodd"/><path d="M1240.86 800.055 1526.35 800.055 1526.35 950.028 1240.86 950.028Z" fill="#C8DAE8" fill-rule="evenodd"/><path d="M1526.35 800.055 1811.84 800.055 1811.84 950.028 1526.35 950.028Z" fill="#C8DAE8" fill-rule="evenodd"/><path d="M1811.84 800.055 2097.33 800.055 2097.33 950.028 1811.84 950.028Z" fill="#C8DAE8" fill-rule="evenodd"/><path d="M2097.33 800.055 2382.82 800.055 2382.82 950.028 2097.33 950.028Z" fill="#C8DAE8" fill-rule="evenodd"/><path d="M2382.82 800.055 2668.32 800.055 2668.32 950.028 2382.82 950.028Z" fill="#C8DAE8" fill-rule="evenodd"/><path d="M2668.32 800.055 2953.81 800.055 2953.81 950.028 2668.32 950.028Z" fill="#C8DAE8" fill-rule="evenodd"/><path d="M2953.81 800.055 3239.3 800.055 3239.3 950.028 2953.81 950.028Z" fill="#C8DAE8" fill-rule="evenodd"/><path d="M3239.3 800.055 3524.79 800.055 3524.79 950.028 3239.3 950.028Z" fill="#C8DAE8" fill-rule="evenodd"/><path d="M306.096 950.028 669.875 950.028 669.875 1100 306.096 1100Z" fill="#C0D2EA" fill-rule="evenodd"/><path d="M669.875 950.028 955.367 950.028 955.367 1100 669.875 1100Z" fill="#C0D2EA" fill-rule="evenodd"/><path d="M955.367 950.028 1240.86 950.028 1240.86 1100 955.367 1100Z" fill="#C0D2EA" fill-rule="evenodd"/><path d="M1240.86 950.028 1526.35 950.028 1526.35 1100 1240.86 1100Z" fill="#C0D2EA" fill-rule="evenodd"/><path d="M1526.35 950.028 1811.84 950.028 1811.84 1100 1526.35 1100Z" fill="#C0D2EA" fill-rule="evenodd"/><path d="M1811.84 950.028 2097.33 950.028 2097.33 1100 1811.84 1100Z" fill="#C0D2EA" fill-rule="evenodd"/><path d="M2097.33 950.028 2382.82 950.028 2382.82 1100 2097.33 1100Z" fill="#C0D2EA" fill-rule="evenodd"/><path d="M2382.82 950.028 2668.32 950.028 2668.32 1100 2382.82 1100Z" fill="#C0D2EA" fill-rule="evenodd"/><path d="M2668.32 950.028 2953.81 950.028 2953.81 1100 2668.32 1100Z" fill="#C0D2EA" fill-rule="evenodd"/><path d="M2953.81 950.028 3239.3 950.028 3239.3 1100 2953.81 1100Z" fill="#C0D2EA" fill-rule="evenodd"/><path d="M3239.3 950.028 3524.79 950.028 3524.79 1100 3239.3 1100Z" fill="#C0D2EA" fill-rule="evenodd"/><path d="M306.096 1100 669.875 1100 669.875 1249.97 306.096 1249.97Z" fill="#C8DAE8" fill-rule="evenodd"/><path d="M669.875 1100 955.367 1100 955.367 1249.97 669.875 1249.97Z" fill="#C8DAE8" fill-rule="evenodd"/><path d="M955.367 1100 1240.86 1100 1240.86 1249.97 955.367 1249.97Z" fill="#C8DAE8" fill-rule="evenodd"/><path d="M1240.86 1100 1526.35 1100 1526.35 1249.97 1240.86 1249.97Z" fill="#C8DAE8" fill-rule="evenodd"/><path d="M1526.35 1100 1811.84 1100 1811.84 1249.97 1526.35 1249.97Z" fill="#C8DAE8" fill-rule="evenodd"/><path d="M1811.84 1100 2097.33 1100 2097.33 1249.97 1811.84 1249.97Z" fill="#C8DAE8" fill-rule="evenodd"/><path d="M2097.33 1100 2382.82 1100 2382.82 1249.97 2097.33 1249.97Z" fill="#C8DAE8" fill-rule="evenodd"/><path d="M2382.82 1100 2668.32 1100 2668.32 1249.97 2382.82 1249.97Z" fill="#C8DAE8" fill-rule="evenodd"/><path d="M2668.32 1100 2953.81 1100 2953.81 1249.97 2668.32 1249.97Z" fill="#C8DAE8" fill-rule="evenodd"/><path d="M2953.81 1100 3239.3 1100 3239.3 1249.97 2953.81 1249.97Z" fill="#C8DAE8" fill-rule="evenodd"/><path d="M3239.3 1100 3524.79 1100 3524.79 1249.97 3239.3 1249.97Z" fill="#C8DAE8" fill-rule="evenodd"/><path d="M669.875 650.083 669.875 1399.95" stroke="#000000" stroke-width="4.58333" stroke-linejoin="round" stroke-miterlimit="10" fill="none" fill-rule="evenodd"/><path d="M955.367 650.083 955.367 1399.95" stroke="#000000" stroke-width="4.58333" stroke-linejoin="round" stroke-miterlimit="10" fill="none" fill-rule="evenodd"/><path d="M1240.86 650.083 1240.86 1399.95" stroke="#000000" stroke-width="4.58333" stroke-linejoin="round" stroke-miterlimit="10" fill="none" fill-rule="evenodd"/><path d="M1526.35 650.083 1526.35 1399.95" stroke="#000000" stroke-width="4.58333" stroke-linejoin="round" stroke-miterlimit="10" fill="none" fill-rule="evenodd"/><path d="M1811.84 650.083 1811.84 1399.95" stroke="#000000" stroke-width="4.58333" stroke-linejoin="round" stroke-miterlimit="10" fill="none" fill-rule="evenodd"/><path d="M2097.33 650.083 2097.33 1399.95" stroke="#000000" stroke-width="4.58333" stroke-linejoin="round" stroke-miterlimit="10" fill="none" fill-rule="evenodd"/><path d="M2382.82 650.083 2382.82 1399.95" stroke="#000000" stroke-width="4.58333" stroke-linejoin="round" stroke-miterlimit="10" fill="none" fill-rule="evenodd"/><path d="M2668.32 650.083 2668.32 1399.95" stroke="#000000" stroke-width="4.58333" stroke-linejoin="round" stroke-miterlimit="10" fill="none" fill-rule="evenodd"/><path d="M2953.81 650.083 2953.81 1399.95" stroke="#000000" stroke-width="4.58333" stroke-linejoin="round" stroke-miterlimit="10" fill="none" fill-rule="evenodd"/><path d="M3239.3 650.083 3239.3 1399.95" stroke="#000000" stroke-width="4.58333" stroke-linejoin="round" stroke-miterlimit="10" fill="none" fill-rule="evenodd"/><path d="M306.096 800.055 3524.79 800.055" stroke="#000000" stroke-width="4.58333" stroke-linejoin="round" stroke-miterlimit="10" fill="none" fill-rule="evenodd"/><path d="M306.096 950.028 3524.79 950.028" stroke="#000000" stroke-width="4.58333" stroke-linejoin="round" stroke-miterlimit="10" fill="none" fill-rule="evenodd"/><path d="M306.096 1100 3524.79 1100" stroke="#000000" stroke-width="4.58333" stroke-linejoin="round" stroke-miterlimit="10" fill="none" fill-rule="evenodd"/><path d="M306.096 1249.97 3524.79 1249.97" stroke="#000000" stroke-width="4.58333" stroke-linejoin="round" stroke-miterlimit="10" fill="none" fill-rule="evenodd"/><text font-family="Times New Roman,Times New Roman_MSFontService,sans-serif" font-weight="400" font-size="83" transform="matrix(1 0 0 1 406.07 747)">Type<tspan font-size="83" x="376.759" y="0">A</tspan><tspan font-size="83" x="664.543" y="0">B</tspan><tspan font-size="83" x="950.034" y="0">C</tspan><tspan font-size="83" x="1233.23" y="0">D</tspan><tspan font-size="83" x="1523.31" y="0">E</tspan><tspan font-size="83" x="1811.09" y="0">F</tspan><tspan font-size="83" x="2089.71" y="0">G</tspan><tspan font-size="83" x="2375.2" y="0">H</tspan><tspan font-size="83" x="2676.73" y="0">I</tspan><tspan font-size="83" x="2959.93" y="0">J</tspan><tspan font-size="83" x="-9.75113" y="150">Items</tspan><tspan font-size="83" x="365.301" y="150">10</tspan><tspan font-size="83" x="650.793" y="150">10</tspan><tspan font-size="83" x="936.284" y="150">10</tspan><tspan font-size="83" x="1221.78" y="150">10</tspan><tspan font-size="83" x="1507.27" y="150">10</tspan><tspan font-size="83" x="1792.76" y="150">10</tspan><tspan font-size="83" x="2078.25" y="150">10</tspan><tspan font-size="83" x="2363.74" y="150">10</tspan><tspan font-size="83" x="2649.23" y="150">10</tspan><tspan font-size="83" x="2934.72" y="150">10</tspan><tspan font-size="83" x="-36.2428" y="300">Weight</tspan><tspan font-size="83" x="385.926" y="300">1</tspan><tspan font-size="83" x="671.418" y="300">2</tspan><tspan font-size="83" x="956.909" y="300">3</tspan><tspan font-size="83" x="1242.4" y="300">4</tspan><tspan font-size="83" x="1527.89" y="300">5</tspan><tspan font-size="83" x="1813.38" y="300">6</tspan><tspan font-size="83" x="2098.88" y="300">7</tspan><tspan font-size="83" x="2384.37" y="300">8</tspan><tspan font-size="83" x="2669.86" y="300">9</tspan><tspan font-size="83" x="2934.72" y="300">10</tspan><tspan font-size="83" x="-12.0542" y="450">Value</tspan><tspan font-size="83" x="385.926" y="450">6</tspan><tspan font-size="83" x="671.418" y="450">7</tspan><tspan font-size="83" x="956.909" y="450">8</tspan><tspan font-size="83" x="1242.4" y="450">9</tspan><tspan font-size="83" x="1507.27" y="450">10</tspan><tspan font-size="83" x="1794.29" y="450">11</tspan><tspan font-size="83" x="2078.25" y="450">12</tspan><tspan font-size="83" x="2363.74" y="450">13</tspan><tspan font-size="83" x="2649.23" y="450">14</tspan><tspan font-size="83" x="2934.72" y="450">15</tspan><tspan font-size="83" x="31.4988" y="599">CP</tspan><tspan font-size="83" x="334.364" y="599">6.00</tspan><tspan font-size="83" x="619.855" y="599">3.50</tspan><tspan font-size="83" x="905.347" y="599">2.67</tspan><tspan font-size="83" x="1190.84" y="599">2.25</tspan><tspan font-size="83" x="1476.33" y="599">2.00</tspan><tspan font-size="83" x="1761.82" y="599">1.83</tspan><tspan font-size="83" x="2047.31" y="599">1.71</tspan><tspan font-size="83" x="2332.8" y="599">1.63</tspan><tspan font-size="83" x="2618.3" y="599">1.55</tspan><tspan font-size="83" x="2903.79" y="599">1.50</tspan></text><path d="M306 731.662C306 686.561 342.561 650 387.661 650L3443.34 650C3488.44 650 3525 686.561 3525 731.662L3525 1318.34C3525 1363.44 3488.44 1400 3443.34 1400L387.661 1400C342.561 1400 306 1363.44 306 1318.34Z" stroke="#000000" stroke-width="10.3125" stroke-miterlimit="8" fill="none" fill-rule="evenodd"/><text font-family="Calibri,Calibri_MSFontService,sans-serif" font-weight="700" font-size="83" transform="matrix(6.12323e-17 1 -1 6.12323e-17 466.999 1433)">=</text><text font-family="Times New Roman,Times New Roman_MSFontService,sans-serif" font-weight="400" font-size="83" transform="matrix(1 0 0 1 390.001 1568)">Value<tspan font-size="83" x="-24.1886" y="122">Weight</tspan></text><path d="M357.5 1598.5 611.875 1598.5" stroke="#000000" stroke-width="6.875" stroke-miterlimit="8" fill="none" fill-rule="evenodd"/><path d="M662 1591.5 767.5 1486 767.5 1511.47 3419.5 1511.47 3419.5 1486 3525 1591.5 3419.5 1697 3419.5 1671.53 767.5 1671.53 767.5 1697Z" fill="url(#fill1)" fill-rule="evenodd"/><text font-family="Times New Roman,Times New Roman_MSFontService,sans-serif" font-weight="700" font-size="128" transform="matrix(1 0 0 1 2007.96 1635)">CP<tspan font-size="128" x="1166.68" y="-11">Low</tspan><tspan font-size="128" x="-1223.94" y="-5">High</tspan></text></g></svg>