<svg width="6142" height="1390" xmlns="http://www.w3.org/2000/svg" xmlns:xlink="http://www.w3.org/1999/xlink" overflow="hidden"><defs><clipPath id="clip0"><rect x="89" y="641" width="6142" height="1390"/></clipPath></defs><g clip-path="url(#clip0)" transform="translate(-89 -641)"><path d="M3010.96 1701.52C3024.28 1701.52 3034.35 1704.44 3041.15 1710.27 3047.95 1716.11 3051.35 1724.58 3051.35 1735.68 3051.35 1739.47 3050.98 1742.97 3050.23 1746.15 3049.47 1749.34 3048.29 1752.49 3046.68 1755.61 3045.07 1758.72 3042.9 1762.07 3040.18 1765.65 3037.46 1769.23 3034.45 1772.86 3031.16 1776.55 3027.86 1780.24 3022.17 1786.38 3014.08 1794.98 3000.47 1809.37 2990.48 1821.94 2984.11 1832.68L3024.61 1832.68C3028.12 1832.68 3030.94 1832.47 3033.09 1832.04 3035.24 1831.61 3036.96 1830.89 3038.25 1829.89 3039.54 1828.89 3040.56 1827.58 3041.31 1825.97 3042.06 1824.36 3043.01 1821.87 3044.16 1818.5L3053.29 1818.5 3051.46 1849.87 2963.05 1849.87 2963.05 1844.71C2966.13 1837.19 2970.29 1829.49 2975.51 1821.62 2980.74 1813.74 2988.15 1804.46 2997.75 1793.79 3006.06 1784.63 3012.04 1777.68 3015.69 1772.95 3019.7 1767.8 3022.69 1763.34 3024.66 1759.58 3026.63 1755.82 3028.04 1752.28 3028.9 1748.95 3029.76 1745.62 3030.19 1742.27 3030.19 1738.9 3030.19 1733.53 3029.33 1728.79 3027.61 1724.67 3025.9 1720.55 3023.26 1717.31 3019.72 1714.95 3016.17 1712.58 3011.72 1711.4 3006.34 1711.4 2992.95 1711.4 2983.93 1718.85 2979.27 1733.75L2966.28 1733.75 2966.28 1713.12C2974.94 1709.04 2983.05 1706.08 2990.61 1704.26 2998.16 1702.43 3004.95 1701.52 3010.96 1701.52Z" fill-rule="evenodd"/><text fill="#000000" fill-opacity="0" font-family="Arial,Arial_MSFontService,sans-serif" font-size="148.35" x="2963.05" y="1831.32">2</text><path d="M3140.64 1663.72 3147.72 1663.72 3146.62 1682.74 3100.55 1682.74 3100.55 1713.48C3103.33 1712.53 3106.37 1711.77 3109.67 1711.2 3112.97 1710.62 3116.3 1710.33 3119.65 1710.33 3124.47 1710.33 3128.84 1711 3132.74 1712.34 3136.65 1713.67 3140 1715.59 3142.8 1718.08 3145.61 1720.57 3147.78 1723.58 3149.33 1727.12 3150.88 1730.66 3151.65 1734.62 3151.65 1739.03 3151.65 1744.06 3150.78 1748.54 3149.05 1752.47 3147.33 1756.4 3144.85 1759.74 3141.63 1762.49 3138.4 1765.24 3134.47 1767.34 3129.83 1768.78 3125.2 1770.22 3119.97 1770.94 3114.15 1770.94 3109.54 1770.94 3104.82 1770.5 3100 1769.61 3095.18 1768.72 3090.17 1767.41 3084.98 1765.68L3084.98 1748.23 3095.05 1748.23C3096.62 1753.52 3098.98 1757.3 3102.12 1759.58 3105.27 1761.86 3109.41 1763 3114.54 1763 3121.41 1763 3126.6 1761.22 3130.11 1757.66 3133.62 1754.09 3135.38 1748.51 3135.38 1740.91 3135.38 1733.63 3133.52 1728.22 3129.79 1724.68 3126.07 1721.14 3120.86 1719.37 3114.15 1719.37 3112.37 1719.37 3110.76 1719.4 3109.32 1719.45 3107.87 1719.51 3106.45 1719.64 3105.03 1719.85 3103.62 1720.06 3102.21 1720.34 3100.83 1720.71 3099.44 1721.08 3097.88 1721.5 3096.15 1721.97L3089.7 1718.43 3089.7 1668.98 3133.25 1668.98C3134.51 1668.93 3135.52 1668.85 3136.28 1668.75 3137.04 1668.64 3137.66 1668.41 3138.13 1668.04 3138.6 1667.67 3139.02 1667.16 3139.39 1666.51 3139.75 1665.85 3140.17 1664.92 3140.64 1663.72Z" fill-rule="evenodd"/><text fill="#000000" fill-opacity="0" font-family="Arial,Arial_MSFontService,sans-serif" font-size="107.229" x="3084.98" y="1757.54">5</text><path d="M3210.66 1675.11C3206.99 1675.11 3203.92 1676.07 3201.46 1677.98 3199 1679.9 3197.04 1682.7 3195.6 1686.4 3194.16 1690.09 3193.14 1694.6 3192.54 1699.92 3191.93 1705.24 3191.63 1711.28 3191.63 1718.04 3191.63 1725.85 3192.01 1732.59 3192.77 1738.28 3193.53 1743.97 3194.71 1748.64 3196.31 1752.31 3197.91 1755.98 3199.91 1758.68 3202.32 1760.41 3204.74 1762.14 3207.62 1763 3210.97 1763 3214.12 1763 3216.87 1762.19 3219.23 1760.57 3221.58 1758.94 3223.54 1756.41 3225.08 1752.98 3226.63 1749.55 3227.8 1745.2 3228.58 1739.93 3229.37 1734.66 3229.76 1728.44 3229.76 1721.26 3229.76 1713.19 3229.33 1706.25 3228.46 1700.43 3227.6 1694.61 3226.38 1689.83 3224.81 1686.08 3223.24 1682.33 3221.26 1679.57 3218.87 1677.79 3216.49 1676.01 3213.75 1675.11 3210.66 1675.11ZM3210.97 1667.49C3217.21 1667.49 3222.54 1668.66 3226.97 1670.99 3231.4 1673.32 3235.01 1676.65 3237.82 1680.97 3240.62 1685.3 3242.68 1690.58 3243.99 1696.81 3245.3 1703.05 3245.96 1710.1 3245.96 1717.96 3245.96 1735.41 3242.86 1748.61 3236.68 1757.54 3230.49 1766.48 3221.53 1770.94 3209.79 1770.94 3198.16 1770.94 3189.51 1766.73 3183.85 1758.29 3178.19 1749.85 3175.36 1737.06 3175.36 1719.92 3175.36 1710.96 3176.24 1703.21 3177.99 1696.65 3179.75 1690.1 3182.21 1684.67 3185.38 1680.34 3188.55 1676.02 3192.31 1672.8 3196.66 1670.67 3201.01 1668.55 3205.78 1667.49 3210.97 1667.49Z" fill-rule="evenodd"/><text fill="#000000" fill-opacity="0" font-family="Arial,Arial_MSFontService,sans-serif" font-size="103.455" x="3175.36" y="1758.01">0</text><path d="M3343.1 1720.32 3475.87 1779.51 3475.87 1794.55 3343.1 1853.74 3343.1 1837.62 3459.76 1787.03 3343.1 1736.43Z" fill-rule="evenodd"/><text fill="#000000" fill-opacity="0" font-family="Arial,Arial_MSFontService,sans-serif" font-size="133.418" x="3343.1" y="1837.06">&gt;</text><text fill="#FF0000" font-family="Times New Roman,Times New Roman_MSFontService,sans-serif" font-weight="700" font-size="220" transform="matrix(1 0 0 1 3565.22 1846)">1 <tspan font-size="220" x="165" y="0">quadrillion </tspan><tspan font-size="220" x="1273.02" y="0">combinations</tspan></text><path d="M91.8291 823.212 637.498 823.212 637.498 988.212 91.8291 988.212Z" fill="#70AD47" fill-rule="evenodd" fill-opacity="0.2"/><path d="M637.498 823.212 1183.17 823.212 1183.17 988.212 637.498 988.212Z" fill="#70AD47" fill-rule="evenodd" fill-opacity="0.2"/><path d="M1183.17 823.212 1728.84 823.212 1728.84 988.212 1183.17 988.212Z" fill="#70AD47" fill-rule="evenodd" fill-opacity="0.2"/><path d="M637.498 655.92 637.498 990.503" stroke="#70AD47" stroke-width="4.58333" stroke-linejoin="round" stroke-miterlimit="10" fill="none" fill-rule="evenodd"/><path d="M1183.17 655.92 1183.17 990.503" stroke="#70AD47" stroke-width="4.58333" stroke-linejoin="round" stroke-miterlimit="10" fill="none" fill-rule="evenodd"/><path d="M89.5374 823.212 1731.13 823.212" stroke="#70AD47" stroke-width="9.16667" stroke-linejoin="round" stroke-miterlimit="10" fill="none" fill-rule="evenodd"/><path d="M91.8291 655.92 91.8291 990.503" stroke="#70AD47" stroke-width="4.58333" stroke-linejoin="round" stroke-miterlimit="10" fill="none" fill-rule="evenodd"/><path d="M1728.84 655.92 1728.84 990.503" stroke="#70AD47" stroke-width="4.58333" stroke-linejoin="round" stroke-miterlimit="10" fill="none" fill-rule="evenodd"/><path d="M89.5374 658.212 1731.13 658.212" stroke="#70AD47" stroke-width="4.58333" stroke-linejoin="round" stroke-miterlimit="10" fill="none" fill-rule="evenodd"/><path d="M89.5374 988.212 1731.13 988.212" stroke="#70AD47" stroke-width="4.58333" stroke-linejoin="round" stroke-miterlimit="10" fill="none" fill-rule="evenodd"/><text font-family="Times New Roman,Times New Roman_MSFontService,sans-serif" font-weight="700" font-size="110" transform="matrix(1 0 0 1 214.846 781)">AAPL<tspan font-size="110" x="585.487" y="0">IBM</tspan><tspan font-size="110" x="1109.67" y="0">MCD</tspan><tspan font-weight="400" font-size="110" x="122.318" y="165">0</tspan><tspan font-weight="400" font-size="110" x="667.987" y="165">1</tspan><tspan font-weight="400" font-size="110" x="1213.66" y="165">1</tspan></text><path d="M91.8291 1287.84 637.498 1287.84 637.498 1452.84 91.8291 1452.84Z" fill="#70AD47" fill-rule="evenodd" fill-opacity="0.2"/><path d="M637.498 1287.84 1183.17 1287.84 1183.17 1452.84 637.498 1452.84Z" fill="#70AD47" fill-rule="evenodd" fill-opacity="0.2"/><path d="M1183.17 1287.84 1728.84 1287.84 1728.84 1452.84 1183.17 1452.84Z" fill="#70AD47" fill-rule="evenodd" fill-opacity="0.2"/><path d="M1728.84 1287.84 2274.51 1287.84 2274.51 1452.84 1728.84 1452.84Z" fill="#70AD47" fill-rule="evenodd" fill-opacity="0.2"/><path d="M637.498 1120.55 637.498 1455.13" stroke="#70AD47" stroke-width="4.58333" stroke-linejoin="round" stroke-miterlimit="10" fill="none" fill-rule="evenodd"/><path d="M1183.17 1120.55 1183.17 1455.13" stroke="#70AD47" stroke-width="4.58333" stroke-linejoin="round" stroke-miterlimit="10" fill="none" fill-rule="evenodd"/><path d="M1728.84 1120.55 1728.84 1455.13" stroke="#70AD47" stroke-width="4.58333" stroke-linejoin="round" stroke-miterlimit="10" fill="none" fill-rule="evenodd"/><path d="M89.5374 1287.84 2276.8 1287.84" stroke="#70AD47" stroke-width="9.16667" stroke-linejoin="round" stroke-miterlimit="10" fill="none" fill-rule="evenodd"/><path d="M91.8291 1120.55 91.8291 1455.13" stroke="#70AD47" stroke-width="4.58333" stroke-linejoin="round" stroke-miterlimit="10" fill="none" fill-rule="evenodd"/><path d="M2274.51 1120.55 2274.51 1455.13" stroke="#70AD47" stroke-width="4.58333" stroke-linejoin="round" stroke-miterlimit="10" fill="none" fill-rule="evenodd"/><path d="M89.5374 1122.84 2276.8 1122.84" stroke="#70AD47" stroke-width="4.58333" stroke-linejoin="round" stroke-miterlimit="10" fill="none" fill-rule="evenodd"/><path d="M89.5374 1452.84 2276.8 1452.84" stroke="#70AD47" stroke-width="4.58333" stroke-linejoin="round" stroke-miterlimit="10" fill="none" fill-rule="evenodd"/><text font-family="Times New Roman,Times New Roman_MSFontService,sans-serif" font-weight="700" font-size="110" transform="matrix(1 0 0 1 214.846 1245)">AAPL<tspan font-size="110" x="585.487" y="0">IBM</tspan><tspan font-size="110" x="1109.67" y="0">MCD</tspan><tspan font-size="110" x="1634.14" y="0">MSFT</tspan><tspan font-weight="400" font-size="110" x="122.318" y="165">1</tspan><tspan font-weight="400" font-size="110" x="667.987" y="165">0</tspan><tspan font-weight="400" font-size="110" x="1213.66" y="165">1</tspan><tspan font-weight="400" font-size="110" x="1759.33" y="165">0</tspan></text><path d="M1911.89 761.214C1924.12 761.214 1933.36 763.893 1939.6 769.252 1945.85 774.611 1948.97 782.387 1948.97 792.579 1948.97 796.064 1948.63 799.269 1947.94 802.195 1947.25 805.122 1946.16 808.015 1944.68 810.875 1943.2 813.736 1941.21 816.81 1938.71 820.097 1936.22 823.385 1933.45 826.722 1930.43 830.109 1927.4 833.495 1922.18 839.133 1914.75 847.024 1902.25 860.241 1893.08 871.781 1887.23 881.644L1924.41 881.644C1927.63 881.644 1930.23 881.447 1932.2 881.052 1934.18 880.658 1935.76 880 1936.94 879.08 1938.12 878.159 1939.06 876.959 1939.75 875.48 1940.44 874 1941.31 871.715 1942.36 868.625L1950.75 868.625 1949.07 897.425 1867.9 897.425 1867.9 892.691C1870.72 885.787 1874.54 878.718 1879.34 871.485 1884.14 864.252 1890.94 855.737 1899.75 845.939 1907.38 837.522 1912.87 831.144 1916.23 826.804 1919.91 822.07 1922.65 817.977 1924.46 814.525 1926.27 811.072 1927.57 807.818 1928.36 804.76 1929.15 801.702 1929.54 798.628 1929.54 795.538 1929.54 790.606 1928.75 786.25 1927.17 782.469 1925.6 778.688 1923.18 775.713 1919.92 773.543 1916.67 771.373 1912.58 770.288 1907.64 770.288 1895.35 770.288 1887.06 777.126 1882.79 790.803L1870.85 790.803 1870.85 771.866C1878.81 768.118 1886.26 765.405 1893.2 763.729 1900.13 762.052 1906.36 761.214 1911.89 761.214Z" fill-rule="evenodd"/><text fill="#000000" fill-opacity="0" font-family="Arial,Arial_MSFontService,sans-serif" font-size="136.212" x="1867.9" y="880.399">2</text><path d="M2009.6 730.613C2013.43 730.613 2017 731.02 2020.33 731.834 2023.65 732.647 2026.54 733.879 2028.98 735.53 2031.42 737.181 2033.32 739.239 2034.68 741.703 2036.05 744.167 2036.73 747.026 2036.73 750.28 2036.73 753.343 2036.3 756.047 2035.44 758.391 2034.58 760.736 2033.25 762.865 2031.45 764.779 2029.66 766.693 2027.46 768.428 2024.85 769.983 2022.24 771.538 2019.24 773.034 2015.84 774.469L2015.84 775.331C2019.05 775.905 2022.04 776.826 2024.82 778.094 2027.59 779.362 2030.02 780.965 2032.1 782.903 2034.18 784.841 2035.82 787.078 2037.02 789.614 2038.21 792.151 2038.81 794.95 2038.81 798.012 2038.81 801.84 2038.09 805.393 2036.66 808.671 2035.22 811.949 2033.07 814.784 2030.2 817.177 2027.33 819.569 2023.79 821.436 2019.58 822.776 2015.36 824.115 2010.44 824.785 2004.79 824.785 2000.34 824.785 1995.82 824.343 1991.22 823.457 1986.63 822.572 1982.28 821.412 1978.16 819.976L1978.16 804.472 1987.42 804.472C1988.18 806.865 1989.09 808.911 1990.15 810.609 1991.2 812.308 1992.43 813.696 1993.84 814.772 1995.26 815.849 1996.88 816.627 1998.72 817.105 2000.57 817.584 2002.66 817.823 2005 817.823 2011.18 817.823 2015.86 816.351 2019.04 813.409 2022.22 810.466 2023.81 806.004 2023.81 800.022 2023.81 793.658 2021.72 788.837 2017.53 785.559 2013.34 782.281 2007.13 780.642 1998.9 780.642L1992.59 780.642 1992.59 773.752C1997.61 773.512 2001.95 772.807 2005.61 771.634 2009.28 770.462 2012.33 768.943 2014.77 767.076 2017.21 765.21 2019.03 763.033 2020.22 760.545 2021.42 758.056 2022.02 755.401 2022.02 752.577 2022.02 747.984 2020.65 744.359 2017.92 741.703 2015.2 739.047 2011.25 737.719 2006.08 737.719 2001.73 737.719 1998.08 738.916 1995.14 741.308 1992.19 743.701 1989.93 747.266 1988.35 752.003L1979.24 752.003 1979.24 737.863C1984.88 735.47 1990.21 733.664 1995.21 732.444 2000.21 731.224 2005 730.613 2009.6 730.613Z" fill-rule="evenodd"/><text fill="#000000" fill-opacity="0" font-family="Arial,Arial_MSFontService,sans-serif" font-size="94.1719" x="1978.16" y="813.014">3</text><path d="M2131.32 853.633 2252.84 853.633 2252.84 866.751 2131.32 866.751ZM2131.32 812.7 2252.84 812.7 2252.84 825.818 2131.32 825.818Z" fill-rule="evenodd"/><text fill="#000000" fill-opacity="0" font-family="Arial,Arial_MSFontService,sans-serif" font-size="54.0508" x="2131.32" y="859.994">=</text><text font-family="Times New Roman,Times New Roman_MSFontService,sans-serif" font-weight="400" font-size="202" transform="matrix(1 0 0 1 2317.72 897)">8 combinations</text><path d="M2457.56 1223.27C2469.79 1223.27 2479.02 1225.95 2485.27 1231.31 2491.52 1236.67 2494.64 1244.45 2494.64 1254.64 2494.64 1258.12 2494.3 1261.33 2493.61 1264.26 2492.92 1267.18 2491.83 1270.08 2490.35 1272.94 2488.87 1275.8 2486.88 1278.87 2484.38 1282.16 2481.88 1285.45 2479.12 1288.78 2476.1 1292.17 2473.07 1295.56 2467.85 1301.19 2460.42 1309.09 2447.92 1322.3 2438.75 1333.84 2432.9 1343.71L2470.08 1343.71C2473.3 1343.71 2475.9 1343.51 2477.87 1343.11 2479.85 1342.72 2481.42 1342.06 2482.61 1341.14 2483.79 1340.22 2484.73 1339.02 2485.42 1337.54 2486.11 1336.06 2486.98 1333.78 2488.03 1330.69L2496.42 1330.69 2494.74 1359.49 2413.57 1359.49 2413.57 1354.75C2416.39 1347.85 2420.21 1340.78 2425.01 1333.55 2429.81 1326.31 2436.61 1317.8 2445.42 1308 2453.05 1299.58 2458.54 1293.21 2461.9 1288.87 2465.58 1284.13 2468.32 1280.04 2470.13 1276.59 2471.94 1273.13 2473.24 1269.88 2474.03 1266.82 2474.82 1263.76 2475.21 1260.69 2475.21 1257.6 2475.21 1252.67 2474.42 1248.31 2472.84 1244.53 2471.27 1240.75 2468.85 1237.77 2465.59 1235.6 2462.34 1233.43 2458.25 1232.35 2453.31 1232.35 2441.02 1232.35 2432.73 1239.19 2428.46 1252.86L2416.52 1252.86 2416.52 1233.93C2424.48 1230.18 2431.93 1227.47 2438.86 1225.79 2445.8 1224.11 2452.03 1223.27 2457.56 1223.27Z" fill-rule="evenodd"/><text fill="#000000" fill-opacity="0" font-family="Arial,Arial_MSFontService,sans-serif" font-size="136.212" x="2413.57" y="1342.46">2</text><path d="M2558.78 1210.48C2554.19 1217.13 2549.61 1223.73 2545.04 1230.29 2540.47 1236.84 2535.86 1243.42 2531.22 1250.02L2531.22 1250.89 2558.78 1250.89 2558.78 1236.46C2558.78 1234.83 2558.81 1232.82 2558.86 1230.43 2558.9 1228.04 2558.96 1225.61 2559.04 1223.14 2559.11 1220.68 2559.19 1218.33 2559.29 1216.11 2559.38 1213.88 2559.48 1212.01 2559.57 1210.48ZM2560.87 1193.68 2572.28 1193.68 2572.28 1250.89 2573.57 1250.89C2575.53 1250.89 2577.12 1250.79 2578.34 1250.6 2579.56 1250.41 2580.55 1250.01 2581.29 1249.41 2582.03 1248.82 2582.65 1247.98 2583.15 1246.9 2583.66 1245.83 2584.19 1244.43 2584.77 1242.7L2590.87 1242.7C2590.73 1245.33 2590.57 1247.94 2590.4 1250.53 2590.24 1253.11 2590.08 1255.74 2589.94 1258.42L2572.28 1258.42 2572.28 1267.83C2572.28 1270.6 2572.34 1272.75 2572.46 1274.29 2572.58 1275.82 2572.94 1277.01 2573.54 1277.87 2574.13 1278.74 2575.02 1279.38 2576.19 1279.81 2577.36 1280.24 2579 1280.75 2581.11 1281.32L2581.11 1285.63 2550.1 1285.63 2550.1 1281.32C2551.54 1280.94 2552.76 1280.59 2553.76 1280.28 2554.77 1279.97 2555.6 1279.61 2556.27 1279.2 2556.94 1278.8 2557.43 1278.32 2557.74 1277.77 2558.06 1277.22 2558.29 1276.52 2558.46 1275.68 2558.63 1274.85 2558.73 1273.79 2558.75 1272.53 2558.77 1271.26 2558.78 1269.69 2558.78 1267.83L2558.78 1258.42 2518.37 1258.42 2518.37 1252.75C2525.5 1242.85 2532.59 1233 2539.62 1223.22 2546.65 1213.43 2553.74 1203.58 2560.87 1193.68Z" fill-rule="evenodd"/><text fill="#000000" fill-opacity="0" font-family="Arial,Arial_MSFontService,sans-serif" font-size="91.9468" x="2518.37" y="1274.13">4</text><path d="M2676.99 1315.69 2798.51 1315.69 2798.51 1328.81 2676.99 1328.81ZM2676.99 1274.76 2798.51 1274.76 2798.51 1287.88 2676.99 1287.88Z" fill-rule="evenodd"/><text fill="#000000" fill-opacity="0" font-family="Arial,Arial_MSFontService,sans-serif" font-size="54.0508" x="2676.99" y="1322.06">=</text><text font-family="Times New Roman,Times New Roman_MSFontService,sans-serif" font-weight="400" font-size="202" transform="matrix(1 0 0 1 2913.81 1359)">16 combinations</text><path d="M91.8291 1752.47 637.498 1752.47 637.498 1917.47 91.8291 1917.47Z" fill="#70AD47" fill-rule="evenodd" fill-opacity="0.2"/><path d="M637.498 1752.47 1183.17 1752.47 1183.17 1917.47 637.498 1917.47Z" fill="#70AD47" fill-rule="evenodd" fill-opacity="0.2"/><path d="M1183.17 1752.47 1728.84 1752.47 1728.84 1917.47 1183.17 1917.47Z" fill="#70AD47" fill-rule="evenodd" fill-opacity="0.2"/><path d="M1728.84 1752.47 2274.51 1752.47 2274.51 1917.47 1728.84 1917.47Z" fill="#70AD47" fill-rule="evenodd" fill-opacity="0.2"/><path d="M2274.51 1752.47 2820.18 1752.47 2820.18 1917.47 2274.51 1917.47Z" fill="#70AD47" fill-rule="evenodd" fill-opacity="0.2"/><path d="M637.498 1585.18 637.498 1919.76" stroke="#70AD47" stroke-width="4.58333" stroke-linejoin="round" stroke-miterlimit="10" fill="none" fill-rule="evenodd"/><path d="M1183.17 1585.18 1183.17 1919.76" stroke="#70AD47" stroke-width="4.58333" stroke-linejoin="round" stroke-miterlimit="10" fill="none" fill-rule="evenodd"/><path d="M1728.84 1585.18 1728.84 1919.76" stroke="#70AD47" stroke-width="4.58333" stroke-linejoin="round" stroke-miterlimit="10" fill="none" fill-rule="evenodd"/><path d="M2274.51 1585.18 2274.51 1919.76" stroke="#70AD47" stroke-width="4.58333" stroke-linejoin="round" stroke-miterlimit="10" fill="none" fill-rule="evenodd"/><path d="M89.5374 1752.47 2822.47 1752.47" stroke="#70AD47" stroke-width="9.16667" stroke-linejoin="round" stroke-miterlimit="10" fill="none" fill-rule="evenodd"/><path d="M91.8291 1585.18 91.8291 1919.76" stroke="#70AD47" stroke-width="4.58333" stroke-linejoin="round" stroke-miterlimit="10" fill="none" fill-rule="evenodd"/><path d="M2820.18 1585.18 2820.18 1919.76" stroke="#70AD47" stroke-width="4.58333" stroke-linejoin="round" stroke-miterlimit="10" fill="none" fill-rule="evenodd"/><path d="M89.5374 1587.47 2822.47 1587.47" stroke="#70AD47" stroke-width="4.58333" stroke-linejoin="round" stroke-miterlimit="10" fill="none" fill-rule="evenodd"/><path d="M89.5374 1917.47 2822.47 1917.47" stroke="#70AD47" stroke-width="4.58333" stroke-linejoin="round" stroke-miterlimit="10" fill="none" fill-rule="evenodd"/><text font-family="Times New Roman,Times New Roman_MSFontService,sans-serif" font-weight="700" font-size="110" transform="matrix(1 0 0 1 214.846 1710)">AAPL<tspan font-size="110" x="585.487" y="0">IBM</tspan><tspan font-size="110" x="1186.16" y="0">…</tspan><tspan font-size="110" x="1627.55" y="0">NVDA</tspan><tspan font-size="110" x="2213.33" y="0">NKE</tspan><tspan font-weight="400" font-size="110" x="122.318" y="165">1</tspan><tspan font-weight="400" font-size="110" x="667.987" y="165">1</tspan><tspan font-weight="400" font-size="110" x="1186.16" y="165">…</tspan><tspan font-weight="400" font-size="110" x="1759.33" y="165">0</tspan><tspan font-weight="400" font-size="110" x="2305" y="165">1</tspan></text></g></svg>